<svg xmlns="http://www.w3.org/2000/svg" version="1.1" x="0px" y="0px"
     viewBox="0 0 280 350" enable-background="new 0 0 280 280" xml:space="preserve"><text x="50%" fill="#000000" font-weight="bold" font-family="'Fira Code', monospace" text-anchor="middle" font-size="16px" y="290">Styx Telegram Bot Framework</text>
    <text x="50%" fill="#000000" font-weight="bold"
          font-family="'Source Han Sans SC', 'Noto Sans CJK SC', 'Microsoft YaHei', sans-serif" text-anchor="middle"
          font-size="16px" y="310">冥河电报机器人框架</text>
    <g><path d="M140,12C69.42,12,12,69.421,12,140c0,70.58,57.42,128,128,128c70.579,0,128-57.42,128-128C268,69.421,210.579,12,140,12z    M54.479,131.1c-1.662,0.875-3.214,1.932-4.595,3.166c-3.853,3.4-6.404,8.104-7.01,12.974c1.321-4.732,4.433-8.731,8.331-11.258   c1.043-0.686,2.143-1.257,3.273-1.731v33.9c-1.133-0.477-2.232-1.049-3.273-1.73c-3.9-2.529-7.012-6.529-8.332-11.261   c0.605,4.87,3.157,9.573,7.01,12.976c1.383,1.229,2.934,2.291,4.596,3.166v3.056c-10.59-3.45-18.226-12.999-18.226-24.218   c0-11.218,7.636-20.766,18.226-24.215V131.1z M56.953,187.51v-72.382c0-15.212,6.263-29.237,16.805-40.496   c0.457,2.136,0.909,4.271,1.39,6.402l1.074,4.76c0.291,1.173,0.686,2.316,1.172,3.417c-6.421,7.454-11.1,16.562-12.794,26.409   c-0.484,2.77-0.733,5.599-0.749,8.401l-0.071,8.175l-0.143,16.351l-0.231,32.7l-0.043,8.176l-0.012,2.043   c0,0.681-0.017,1.346,0.012,2.126c0.057,1.522,0.253,3.007,0.592,4.479c1.184,5.185,4.189,9.896,8.323,13.229   C63.263,207.148,56.953,198.041,56.953,187.51z M188.394,253.146c-0.025-0.051-0.045-0.106-0.076-0.155l-0.042-0.065   c-1.981-3.145-4.632-5.924-7.538-8.151c-2.924-2.238-6.143-4.004-9.493-5.356c-2.023-0.816-4.096-1.463-6.195-1.985   c-0.168,0.384-0.382,0.769-0.641,1.15c2.085,0.703,4.12,1.532,6.069,2.524c3.086,1.57,5.967,3.508,8.476,5.801   c2.432,2.243,4.46,4.775,5.985,7.658c-13.922,5.467-29.075,8.486-44.938,8.486c-15.862,0-31.016-3.02-44.938-8.486   c1.492-2.832,3.553-5.422,5.985-7.658c2.508-2.293,5.389-4.229,8.475-5.801c1.948-0.992,3.982-1.821,6.065-2.523   c-0.26-0.383-0.474-0.767-0.642-1.15c-2.097,0.521-4.169,1.169-6.19,1.984c-3.35,1.353-6.568,3.118-9.494,5.356   c-2.913,2.242-5.533,4.971-7.557,8.187c-0.027,0.045-0.057,0.094-0.08,0.142c-0.008,0.016-0.01,0.029-0.017,0.044   c-4.068-1.741-8.03-3.684-11.857-5.837c6.987-8.278,19.387-13.787,33.528-13.787h1.575c0.095-0.199,0.201-0.392,0.328-0.576   c-0.469-0.872-0.707-1.742-0.71-2.604c0-0.862,0.245-1.651,0.71-2.324c-0.469-0.872-0.707-1.744-0.71-2.606   c0-0.861,0.245-1.649,0.71-2.321c-0.469-0.873-0.707-1.743-0.71-2.607c0-0.862,0.245-1.65,0.71-2.323   c-0.274-0.51-0.46-1.02-0.575-1.528l2.623,0.005c0.125,0.377,0.323,0.712,0.521,0.998c0.74,0.989,1.672,1.708,2.628,2.358   c1.931,1.281,4.038,2.217,6.192,2.965c2.162,0.738,4.394,1.24,6.641,1.572c2.249,0.328,4.524,0.457,6.787,0.374   c2.262,0.082,4.537-0.046,6.786-0.376c2.249-0.331,4.479-0.834,6.642-1.572c2.156-0.749,4.262-1.684,6.192-2.965   c0.956-0.651,1.89-1.371,2.628-2.36c0.2-0.284,0.395-0.619,0.521-0.992l2.624-0.005c-0.116,0.508-0.3,1.018-0.576,1.527   c0.466,0.672,0.71,1.46,0.71,2.322c0,0.863-0.238,1.734-0.71,2.607c0.466,0.672,0.71,1.46,0.71,2.321   c0,0.862-0.238,1.734-0.71,2.607c0.464,0.673,0.71,1.462,0.71,2.323c0,0.859-0.237,1.731-0.709,2.604   c0.128,0.185,0.234,0.377,0.328,0.576h1.575c14.144,0,26.544,5.509,33.528,13.787C196.422,249.463,192.461,251.405,188.394,253.146   z M151.116,219.134c-3.614,1.024-7.363,1.552-11.119,1.499c-3.753,0.049-7.504-0.475-11.116-1.501   c-2.158-0.631-4.313-1.426-6.295-2.486l0.612,0.001c1.1,0.527,2.229,0.982,3.373,1.381c2.162,0.739,4.395,1.241,6.641,1.572   c2.249,0.33,4.524,0.458,6.787,0.374c2.262,0.082,4.537-0.045,6.786-0.375c2.249-0.331,4.479-0.836,6.642-1.574   c1.143-0.397,2.27-0.851,3.365-1.376l0.619-0.002C155.43,217.707,153.276,218.502,151.116,219.134z M159.368,217.23   c0.337-0.009,0.768,0.125,0.602,0.352c-1.443,1.941-9.746,4.962-12.1,4.402c-0.271-0.064-0.03-0.445,0.236-0.652L159.368,217.23z    M131.894,221.332c0.263,0.207,0.504,0.588,0.234,0.652c-2.354,0.56-10.656-2.461-12.098-4.402   c-0.168-0.227,0.262-0.36,0.599-0.352L131.894,221.332z M203.4,208.673c-2.036,1.327-4.313,2.271-6.687,2.76   c-1.185,0.243-2.397,0.371-3.605,0.386l-4.057-0.004l-98.101,0.003l-4.055,0.003c-1.214-0.015-2.423-0.143-3.61-0.385   c-2.37-0.489-4.654-1.423-6.689-2.755c-4.082-2.652-7.124-6.9-8.256-11.646c-0.288-1.18-0.462-2.408-0.519-3.607   c-0.03-0.58-0.024-1.278-0.029-1.962l-0.011-2.043l-0.043-8.176l-0.232-32.7l-0.143-16.351l-0.071-8.175   c-0.025-2.646,0.141-5.27,0.528-7.879c1.302-8.912,5.245-17.346,10.875-24.484c1.674,2.651,3.943,4.89,6.57,6.491   c2.949,1.769,6.321,2.756,9.676,2.809c3.354,0.062,6.66-0.799,9.469-2.407c-6.087,2.235-12.949,1.219-17.752-2.48   c-2.43-1.787-4.354-4.187-5.556-6.869c-0.607-1.338-1.056-2.74-1.313-4.178l-0.761-4.736c-1.018-6.369-2.161-12.715-3.261-19.068   c-0.853-4.521-1.682-9.047-2.534-13.567c3.437,2.104,6.872,4.212,10.349,6.254c5.058,3.002,10.106,6.017,15.218,8.929l7.571,4.354   c2.289,1.442,4.244,3.447,5.693,5.798c2.946,4.691,3.579,10.896,1.516,16.438c3.027-5.1,3.283-11.918,0.537-17.553   c-0.555-1.159-1.257-2.245-2.037-3.276c3.82-1.335,7.739-2.401,11.72-3.187c5.319-1.085,10.747-1.688,16.198-1.816   c-5.451-0.123-10.923,0.229-16.332,1.075c-4.182,0.669-8.314,1.663-12.362,2.944c-0.939-1.093-1.982-2.104-3.135-2.987   c-0.683-0.522-1.271-0.898-1.882-1.318l-1.835-1.226l-3.677-2.439c-1.102-0.738-2.215-1.458-3.323-2.187   c12.445-6.017,26.993-9.482,42.547-9.482s30.102,3.466,42.546,9.482c-1.107,0.729-2.221,1.448-3.322,2.187l-3.678,2.439   l-1.835,1.226c-0.609,0.421-1.196,0.797-1.882,1.318c-1.151,0.883-2.194,1.894-3.133,2.984c-4.048-1.281-8.184-2.273-12.366-2.944   c-5.41-0.844-10.881-1.195-16.331-1.072c5.45,0.129,10.877,0.733,16.197,1.819c3.98,0.785,7.899,1.853,11.72,3.187   c-0.779,1.03-1.48,2.115-2.034,3.273c-2.746,5.635-2.492,12.454,0.538,17.553c-2.064-5.54-1.432-11.745,1.515-16.438   c1.449-2.35,3.404-4.355,5.693-5.798l7.572-4.354c5.111-2.912,10.16-5.927,15.218-8.929c3.477-2.042,6.913-4.149,10.348-6.254   c-0.853,4.521-1.682,9.046-2.534,13.567c-1.1,6.354-2.244,12.699-3.261,19.068l-0.762,4.735c-0.257,1.437-0.707,2.839-1.313,4.178   c-1.201,2.684-3.126,5.082-5.556,6.87c-4.804,3.698-11.666,4.718-17.753,2.48c2.81,1.608,6.114,2.469,9.47,2.407   c3.354-0.053,6.725-1.041,9.674-2.809c2.627-1.602,4.895-3.837,6.569-6.488c5.628,7.138,9.568,15.572,10.87,24.479   c0.188,1.305,0.342,2.613,0.417,3.927c0.055,0.66,0.071,1.303,0.097,1.948l0.018,2.004l-0.072,8.175l-0.143,16.35l-0.23,32.7   l-0.044,8.176l-0.01,2.043c-0.007,0.693,0,1.367-0.029,1.952c-0.058,1.22-0.232,2.432-0.519,3.616   C210.522,201.775,207.482,206.023,203.4,208.673z M223.047,187.51c0,10.519-6.296,19.616-15.293,23.775   c4.122-3.336,7.118-8.039,8.299-13.216c0.339-1.468,0.537-2.968,0.591-4.47c0.029-0.779,0.012-1.467,0.012-2.137l-0.01-2.043   l-0.043-8.176l-0.231-32.7l-0.145-16.35l-0.07-8.175l-0.055-2.084c-0.04-0.715-0.072-1.435-0.142-2.132   c-0.119-1.403-0.318-2.8-0.552-4.187c-0.965-5.552-2.872-10.911-5.511-15.841c-2.04-3.787-4.506-7.322-7.294-10.563   c0.488-1.102,0.883-2.246,1.174-3.419l1.075-4.761c0.479-2.131,0.931-4.266,1.389-6.401c10.543,11.259,16.806,25.284,16.806,40.496   V187.51z M225.521,174.355v-3.057c1.661-0.875,3.21-1.936,4.591-3.164c3.854-3.402,6.406-8.105,7.01-12.976   c-1.319,4.731-4.431,8.73-8.329,11.26c-1.041,0.681-2.141,1.254-3.271,1.729v-33.897c1.129,0.475,2.229,1.046,3.27,1.73   c3.898,2.526,7.01,6.525,8.331,11.258c-0.604-4.87-3.156-9.573-7.01-12.974c-1.379-1.232-2.93-2.29-4.591-3.165v-5.176   c10.587,3.451,18.223,12.996,18.223,24.214S236.107,170.904,225.521,174.355z"/>
        <path d="M161.602,233.816l-0.3-0.156l-0.27,0.236c-2.764,2.428-6.34,3.909-9.916,4.955c-3.614,1.025-7.363,1.554-11.119,1.5   c-3.753,0.05-7.504-0.475-11.116-1.501c-3.576-1.048-7.152-2.527-9.916-4.955l-0.269-0.235l-0.304,0.153   c-0.546,0.277-1.214,0.828-1.284,1.65c-0.068,0.776,0.298,1.395,0.642,1.887c0.741,0.989,1.671,1.707,2.628,2.358   c1.932,1.281,4.038,2.216,6.193,2.965c2.162,0.738,4.394,1.242,6.641,1.573c2.249,0.33,4.524,0.457,6.787,0.374   c2.262,0.082,4.537-0.044,6.786-0.376c2.249-0.331,4.479-0.835,6.642-1.572c2.156-0.749,4.262-1.683,6.192-2.966   c0.956-0.651,1.89-1.37,2.628-2.359c0.346-0.49,0.707-1.115,0.643-1.873C162.812,234.627,162.148,234.099,161.602,233.816z    M132.128,241.702c-2.354,0.56-10.658-2.463-12.098-4.403c-0.168-0.224,0.262-0.36,0.599-0.351l11.265,4.099   C132.154,241.256,132.396,241.636,132.128,241.702z M159.97,237.299c-1.443,1.94-9.746,4.963-12.098,4.403   c-0.271-0.066-0.029-0.446,0.234-0.655l11.266-4.099C159.706,236.938,160.136,237.075,159.97,237.299z"/>
        <path d="M161.601,228.886l-0.301-0.152l-0.268,0.235c-2.764,2.427-6.339,3.908-9.916,4.953c-3.614,1.025-7.363,1.552-11.119,1.5   c-3.753,0.049-7.504-0.475-11.116-1.5c-3.578-1.047-7.153-2.526-9.916-4.955l-0.267-0.234l-0.306,0.152   c-0.547,0.275-1.214,0.828-1.284,1.649c-0.068,0.776,0.298,1.395,0.642,1.887c0.741,0.989,1.671,1.708,2.628,2.359   c1.932,1.282,4.038,2.216,6.193,2.966c2.162,0.737,4.394,1.241,6.641,1.571c2.249,0.33,4.524,0.458,6.787,0.374   c2.262,0.083,4.537-0.045,6.786-0.375s4.479-0.836,6.642-1.574c2.156-0.749,4.262-1.683,6.193-2.965   c0.957-0.651,1.889-1.37,2.628-2.36c0.345-0.488,0.706-1.117,0.642-1.871C162.814,229.694,162.148,229.168,161.601,228.886z    M132.128,236.774c-2.354,0.563-10.652-2.464-12.098-4.404c-0.168-0.224,0.262-0.359,0.599-0.349l11.263,4.1   C132.156,236.331,132.396,236.709,132.128,236.774z M159.97,232.37c-1.447,1.94-9.749,4.968-12.1,4.404   c-0.27-0.065-0.03-0.443,0.236-0.653l11.262-4.1C159.706,232.011,160.136,232.146,159.97,232.37z"/>
        <path d="M161.602,223.959l-0.3-0.156l-0.27,0.237c-2.764,2.426-6.34,3.907-9.916,4.953c-3.614,1.024-7.363,1.552-11.119,1.499   c-3.753,0.05-7.504-0.476-11.116-1.501c-3.576-1.047-7.153-2.526-9.916-4.953l-0.269-0.235l-0.304,0.154   c-0.546,0.275-1.214,0.826-1.284,1.648c-0.068,0.776,0.299,1.395,0.642,1.887c0.741,0.989,1.673,1.709,2.628,2.359   c1.932,1.281,4.038,2.217,6.193,2.964c2.162,0.739,4.394,1.241,6.641,1.572c2.249,0.33,4.524,0.458,6.787,0.374   c2.262,0.083,4.537-0.044,6.786-0.374c2.249-0.332,4.479-0.836,6.642-1.573c2.156-0.749,4.262-1.684,6.192-2.966   c0.956-0.651,1.89-1.37,2.628-2.358c0.346-0.49,0.707-1.116,0.643-1.874C162.812,224.77,162.148,224.241,161.602,223.959z    M132.128,231.843c-2.355,0.561-10.656-2.462-12.098-4.405c-0.168-0.224,0.262-0.356,0.599-0.35l11.263,4.101   C132.154,231.398,132.396,231.777,132.128,231.843z M159.97,227.438c-1.443,1.943-9.745,4.966-12.1,4.405   c-0.27-0.065-0.027-0.444,0.236-0.654l11.266-4.101C159.706,227.081,160.136,227.214,159.97,227.438z"/>
        <path d="M161.601,219.03l-0.301-0.154l-0.268,0.236c-2.765,2.425-6.341,3.905-9.918,4.951c-3.612,1.024-7.361,1.552-11.117,1.5   c-3.753,0.048-7.504-0.476-11.116-1.501c-3.576-1.047-7.152-2.526-9.916-4.952l-0.267-0.235l-0.305,0.152   c-0.548,0.275-1.216,0.827-1.285,1.649c-0.068,0.777,0.299,1.395,0.643,1.888c0.74,0.988,1.672,1.707,2.628,2.357   c1.931,1.282,4.038,2.217,6.192,2.965c2.162,0.737,4.395,1.24,6.641,1.571c2.249,0.329,4.524,0.456,6.787,0.373   c2.262,0.083,4.537-0.045,6.786-0.374c2.247-0.33,4.479-0.836,6.64-1.572c2.156-0.748,4.264-1.684,6.194-2.965   c0.956-0.65,1.888-1.369,2.628-2.358c0.344-0.49,0.707-1.115,0.643-1.874C162.813,219.842,162.15,219.312,161.601,219.03z    M132.128,226.916c-2.354,0.56-10.656-2.464-12.098-4.406c-0.168-0.222,0.26-0.357,0.599-0.348l11.263,4.1   C132.156,226.473,132.396,226.852,132.128,226.916z M159.97,222.51c-1.443,1.942-9.746,4.966-12.098,4.406   c-0.271-0.064-0.032-0.443,0.234-0.654l11.262-4.1C159.706,222.152,160.136,222.288,159.97,222.51z"/>
        <path d="M188.979,108.794H91.019c-8.51,0-15.473,6.961-15.473,15.471v60.949c0,8.512,6.963,15.474,15.473,15.474h97.961   c8.513,0,15.474-6.962,15.474-15.474v-60.949C204.453,115.755,197.492,108.794,188.979,108.794z M198.855,185.214   c0,5.447-4.43,9.879-9.876,9.879H91.019c-5.446,0-9.877-4.432-9.877-9.879v-60.949c0-5.445,4.431-9.877,9.877-9.877h97.961   c5.446,0,9.876,4.432,9.876,9.877V185.214z"/>
        <path d="M188.979,117.48H91.019c-3.742,0-6.786,3.043-6.786,6.784v60.949c0,3.742,3.044,6.787,6.786,6.787h97.961   c3.741,0,6.784-3.045,6.784-6.787v-60.949C195.764,120.523,192.721,117.48,188.979,117.48z M123.487,150.248   c0,8.213-6.656,14.869-14.869,14.869c-8.21,0-14.868-6.656-14.868-14.869v-3.002c0-1.586,1.296-2.885,2.883-2.885h23.97   c1.588,0,2.885,1.299,2.885,2.885V150.248z M186.25,150.248c0,8.213-6.656,14.869-14.868,14.869   c-8.211,0-14.869-6.656-14.869-14.869v-3.002c0-1.586,1.297-2.885,2.884-2.885h23.971c1.586,0,2.883,1.299,2.883,2.885V150.248z"/></g></svg>